<svg width="215" height="40" viewBox="0 0 215 40" fill="none" xmlns="http://www.w3.org/2000/svg">
<path d="M16.0025 40C22.578 36.8331 32 30.5439 32 18.0994C32 5.65481 31.4049 0 31.4049 0H0.600031C0.600031 0 2.14034e-07 5.65977 2.14034e-07 18.0994C2.14034e-07 30.539 9.42197 36.8331 16.0025 40Z" fill="#C3112B"/>
<path d="M14.5941 14.8381C12.8089 14.8678 9.33264 14.9372 6.23827 13.9014C6.23827 13.9014 6.31761 15.0066 6.31761 16.3001C6.31761 17.5936 6.23827 18.6938 6.23827 18.6938C9.07478 17.7324 12.5857 17.7324 14.5941 17.7324V24.6212H17.4058V17.7324C19.4191 17.7324 22.9251 17.7324 25.7666 18.674C25.7666 18.674 25.6823 17.5688 25.6823 16.2803C25.6823 14.9917 25.7666 13.8815 25.7666 13.8815C22.6672 14.9174 19.191 14.848 17.4058 14.8182V10.5214C19.6486 10.4607 21.8854 10.7808 24.021 11.468C24.021 11.468 23.9367 10.3628 23.9367 9.07421C23.9367 7.78564 24.021 6.6755 24.021 6.6755C21.8888 7.36286 19.6552 7.68295 17.4157 7.6221C17.5411 5.54341 17.8347 3.47827 18.2934 1.4469C18.2934 1.4469 16.657 1.57576 16.0024 1.57576C15.3478 1.57576 13.7064 1.4469 13.7064 1.4469C14.1652 3.47827 14.4587 5.54341 14.5842 7.6221C12.3446 7.68266 10.1111 7.36258 7.97885 6.6755C7.97885 6.6755 8.06316 7.78564 8.06316 9.07421C8.06316 10.3628 7.97885 11.468 7.97885 11.468C10.1145 10.7808 12.3513 10.4607 14.5941 10.5214V14.8381Z" fill="white"/>
<path d="M16.0021 23.8781C12.7067 23.8782 10.9275 28.4252 10.9094 28.4718C10.5568 27.7998 10.0229 27.24 9.36835 26.8556C8.71367 26.4711 7.96437 26.2778 7.20526 26.297C5.37968 26.297 4.03319 27.9151 3.17596 29.4171C6.5063 34.7186 11.8254 37.99 16.0021 40.0001C20.1734 37.9912 25.4892 34.7249 28.8195 29.4288C27.9619 27.9234 26.6121 26.297 24.7844 26.297C24.0271 26.2803 23.2797 26.4742 22.6271 26.8585C21.9746 27.2428 21.4423 27.8017 21.09 28.4718C21.0693 28.4184 19.2952 23.8781 16.0021 23.8781Z" fill="#1E4E9D"/>
<path d="M53.624 21.288C52.6 21.288 51.576 21.096 50.552 20.712C49.544 20.328 48.64 19.768 47.84 19.032L49.856 16.608C50.416 17.088 51.04 17.48 51.728 17.784C52.416 18.088 53.08 18.24 53.72 18.24C54.456 18.24 55 18.104 55.352 17.832C55.72 17.56 55.904 17.192 55.904 16.728C55.904 16.232 55.696 15.872 55.28 15.648C54.88 15.408 54.336 15.144 53.648 14.856L51.608 13.992C51.08 13.768 50.576 13.472 50.096 13.104C49.616 12.72 49.224 12.248 48.92 11.688C48.616 11.128 48.464 10.472 48.464 9.72C48.464 8.856 48.696 8.072 49.16 7.368C49.64 6.664 50.296 6.104 51.128 5.688C51.976 5.272 52.944 5.064 54.032 5.064C54.928 5.064 55.824 5.24 56.72 5.592C57.616 5.944 58.4 6.456 59.072 7.128L57.272 9.36C56.76 8.96 56.248 8.656 55.736 8.448C55.224 8.224 54.656 8.112 54.032 8.112C53.424 8.112 52.936 8.24 52.568 8.496C52.216 8.736 52.04 9.08 52.04 9.528C52.04 10.008 52.264 10.368 52.712 10.608C53.176 10.848 53.744 11.104 54.416 11.376L56.432 12.192C57.376 12.576 58.128 13.104 58.688 13.776C59.248 14.448 59.528 15.336 59.528 16.44C59.528 17.304 59.296 18.104 58.832 18.84C58.368 19.576 57.696 20.168 56.816 20.616C55.936 21.064 54.872 21.288 53.624 21.288ZM65.2859 21.288C64.0699 21.288 63.2219 20.928 62.7419 20.208C62.2779 19.472 62.0459 18.504 62.0459 17.304V4.176H65.5739V17.448C65.5739 17.816 65.6379 18.072 65.7659 18.216C65.9099 18.36 66.0539 18.432 66.1979 18.432C66.2779 18.432 66.3419 18.432 66.3899 18.432C66.4539 18.416 66.5339 18.4 66.6299 18.384L67.0619 21C66.8699 21.08 66.6219 21.144 66.3179 21.192C66.0299 21.256 65.6859 21.288 65.2859 21.288ZM74.1751 21.288C73.1671 21.288 72.2151 21.048 71.3191 20.568C70.4391 20.072 69.7271 19.36 69.1831 18.432C68.6391 17.488 68.3671 16.36 68.3671 15.048C68.3671 13.72 68.6391 12.592 69.1831 11.664C69.7271 10.736 70.4391 10.032 71.3191 9.552C72.2151 9.056 73.1671 8.808 74.1751 8.808C75.1831 8.808 76.1271 9.056 77.0071 9.552C77.8871 10.032 78.5991 10.736 79.1431 11.664C79.6871 12.592 79.9591 13.72 79.9591 15.048C79.9591 16.36 79.6871 17.488 79.1431 18.432C78.5991 19.36 77.8871 20.072 77.0071 20.568C76.1271 21.048 75.1831 21.288 74.1751 21.288ZM74.1751 18.432C74.8951 18.432 75.4391 18.128 75.8071 17.52C76.1751 16.896 76.3591 16.072 76.3591 15.048C76.3591 14.008 76.1751 13.184 75.8071 12.576C75.4391 11.968 74.8951 11.664 74.1751 11.664C73.4391 11.664 72.8871 11.968 72.5191 12.576C72.1671 13.184 71.9911 14.008 71.9911 15.048C71.9911 16.072 72.1671 16.896 72.5191 17.52C72.8871 18.128 73.4391 18.432 74.1751 18.432ZM85.0741 21L81.0661 9.096H84.6181L86.1541 14.712C86.3141 15.304 86.4661 15.912 86.6101 16.536C86.7701 17.144 86.9301 17.76 87.0901 18.384H87.1861C87.3301 17.76 87.4741 17.144 87.6181 16.536C87.7781 15.912 87.9381 15.304 88.0981 14.712L89.6581 9.096H93.0421L89.1541 21H85.0741ZM100.191 21.288C99.0551 21.288 98.0311 21.04 97.1191 20.544C96.2071 20.048 95.4871 19.336 94.9591 18.408C94.4311 17.48 94.1671 16.36 94.1671 15.048C94.1671 13.752 94.4311 12.64 94.9591 11.712C95.5031 10.784 96.2071 10.072 97.0711 9.576C97.9351 9.064 98.8391 8.808 99.7831 8.808C100.919 8.808 101.855 9.064 102.591 9.576C103.343 10.072 103.903 10.752 104.271 11.616C104.655 12.464 104.847 13.432 104.847 14.52C104.847 14.824 104.831 15.128 104.799 15.432C104.767 15.72 104.735 15.936 104.703 16.08H97.5751C97.7351 16.944 98.0951 17.584 98.6551 18C99.2151 18.4 99.8871 18.6 100.671 18.6C101.519 18.6 102.375 18.336 103.239 17.808L104.415 19.944C103.807 20.36 103.127 20.688 102.375 20.928C101.623 21.168 100.895 21.288 100.191 21.288ZM97.5511 13.752H101.847C101.847 13.096 101.687 12.56 101.367 12.144C101.063 11.712 100.559 11.496 99.8551 11.496C99.3111 11.496 98.8231 11.688 98.3911 12.072C97.9591 12.44 97.6791 13 97.5511 13.752ZM107.435 21V9.096H110.315L110.555 10.608H110.651C111.163 10.128 111.723 9.712 112.331 9.36C112.955 8.992 113.667 8.808 114.467 8.808C115.763 8.808 116.699 9.24 117.275 10.104C117.867 10.952 118.163 12.12 118.163 13.608V21H114.635V14.064C114.635 13.2 114.515 12.608 114.275 12.288C114.051 11.968 113.683 11.808 113.171 11.808C112.723 11.808 112.339 11.912 112.019 12.12C111.699 12.312 111.347 12.592 110.963 12.96V21H107.435ZM124.823 21.288C124.039 21.288 123.231 21.136 122.399 20.832C121.583 20.528 120.871 20.128 120.263 19.632L121.847 17.424C122.391 17.824 122.911 18.136 123.407 18.36C123.919 18.568 124.423 18.672 124.919 18.672C125.447 18.672 125.831 18.584 126.071 18.408C126.311 18.216 126.431 17.968 126.431 17.664C126.431 17.392 126.311 17.168 126.071 16.992C125.847 16.816 125.551 16.656 125.183 16.512C124.815 16.352 124.423 16.192 124.007 16.032C123.527 15.84 123.047 15.6 122.567 15.312C122.103 15.024 121.711 14.656 121.391 14.208C121.071 13.744 120.911 13.184 120.911 12.528C120.911 11.424 121.327 10.528 122.159 9.84C123.007 9.152 124.111 8.808 125.471 8.808C126.383 8.808 127.183 8.968 127.871 9.288C128.575 9.592 129.175 9.936 129.671 10.32L128.087 12.432C127.671 12.112 127.255 11.864 126.839 11.688C126.423 11.512 126.007 11.424 125.591 11.424C124.679 11.424 124.223 11.736 124.223 12.36C124.223 12.744 124.447 13.04 124.895 13.248C125.359 13.44 125.895 13.648 126.503 13.872C127.015 14.048 127.511 14.28 127.991 14.568C128.487 14.84 128.895 15.208 129.215 15.672C129.551 16.12 129.719 16.712 129.719 17.448C129.719 18.52 129.303 19.432 128.471 20.184C127.639 20.92 126.423 21.288 124.823 21.288ZM132.11 21V4.176H135.542V13.824H135.638L139.406 9.096H143.246L139.07 13.992L143.558 21H139.742L137.054 16.368L135.542 18.072V21H132.11ZM149.841 21.288C148.833 21.288 147.881 21.048 146.985 20.568C146.105 20.072 145.393 19.36 144.849 18.432C144.305 17.488 144.033 16.36 144.033 15.048C144.033 13.72 144.305 12.592 144.849 11.664C145.393 10.736 146.105 10.032 146.985 9.552C147.881 9.056 148.833 8.808 149.841 8.808C150.849 8.808 151.793 9.056 152.673 9.552C153.553 10.032 154.265 10.736 154.809 11.664C155.353 12.592 155.625 13.72 155.625 15.048C155.625 16.36 155.353 17.488 154.809 18.432C154.265 19.36 153.553 20.072 152.673 20.568C151.793 21.048 150.849 21.288 149.841 21.288ZM149.841 18.432C150.561 18.432 151.105 18.128 151.473 17.52C151.841 16.896 152.025 16.072 152.025 15.048C152.025 14.008 151.841 13.184 151.473 12.576C151.105 11.968 150.561 11.664 149.841 11.664C149.105 11.664 148.553 11.968 148.185 12.576C147.833 13.184 147.657 14.008 147.657 15.048C147.657 16.072 147.833 16.896 148.185 17.52C148.553 18.128 149.105 18.432 149.841 18.432ZM159.997 21.288C159.389 21.288 158.877 21.08 158.461 20.664C158.061 20.232 157.861 19.704 157.861 19.08C157.861 18.44 158.061 17.912 158.461 17.496C158.877 17.064 159.389 16.848 159.997 16.848C160.605 16.848 161.109 17.064 161.509 17.496C161.925 17.912 162.133 18.44 162.133 19.08C162.133 19.704 161.925 20.232 161.509 20.664C161.109 21.08 160.605 21.288 159.997 21.288ZM168.806 21.288C168.022 21.288 167.214 21.136 166.382 20.832C165.566 20.528 164.854 20.128 164.246 19.632L165.83 17.424C166.374 17.824 166.894 18.136 167.39 18.36C167.902 18.568 168.406 18.672 168.902 18.672C169.43 18.672 169.814 18.584 170.054 18.408C170.294 18.216 170.414 17.968 170.414 17.664C170.414 17.392 170.294 17.168 170.054 16.992C169.83 16.816 169.534 16.656 169.166 16.512C168.798 16.352 168.406 16.192 167.99 16.032C167.51 15.84 167.03 15.6 166.55 15.312C166.086 15.024 165.694 14.656 165.374 14.208C165.054 13.744 164.894 13.184 164.894 12.528C164.894 11.424 165.31 10.528 166.142 9.84C166.99 9.152 168.094 8.808 169.454 8.808C170.366 8.808 171.166 8.968 171.854 9.288C172.558 9.592 173.158 9.936 173.654 10.32L172.07 12.432C171.654 12.112 171.238 11.864 170.822 11.688C170.406 11.512 169.99 11.424 169.574 11.424C168.662 11.424 168.206 11.736 168.206 12.36C168.206 12.744 168.43 13.04 168.878 13.248C169.342 13.44 169.878 13.648 170.486 13.872C170.998 14.048 171.494 14.28 171.974 14.568C172.47 14.84 172.878 15.208 173.198 15.672C173.534 16.12 173.702 16.712 173.702 17.448C173.702 18.52 173.286 19.432 172.454 20.184C171.622 20.92 170.406 21.288 168.806 21.288ZM176.093 21V4.176H179.525V13.824H179.621L183.389 9.096H187.229L183.053 13.992L187.541 21H183.725L181.037 16.368L179.525 18.072V21H176.093Z" fill="#0B4199"/>
<path d="M50.876 36.144C50.34 36.144 49.856 36.036 49.424 35.82C49 35.604 48.664 35.248 48.416 34.752C48.168 34.256 48.044 33.588 48.044 32.748V28.128H49.04V32.772C49.04 33.404 49.12 33.904 49.28 34.272C49.448 34.632 49.668 34.888 49.94 35.04C50.22 35.192 50.532 35.268 50.876 35.268C51.228 35.268 51.544 35.192 51.824 35.04C52.104 34.888 52.324 34.632 52.484 34.272C52.652 33.904 52.736 33.404 52.736 32.772V28.128H53.696V32.748C53.696 33.588 53.572 34.256 53.324 34.752C53.076 35.248 52.74 35.604 52.316 35.82C51.892 36.036 51.412 36.144 50.876 36.144ZM50.66 27.636L50.216 27.132L51.92 25.596L52.484 26.256L50.66 27.636ZM57.5955 36.144C57.1795 36.144 56.7835 36.068 56.4075 35.916C56.0315 35.756 55.7035 35.564 55.4235 35.34L55.9155 34.68C56.1715 34.88 56.4355 35.048 56.7075 35.184C56.9795 35.312 57.2875 35.376 57.6315 35.376C58.0155 35.376 58.3035 35.288 58.4955 35.112C58.6875 34.928 58.7835 34.712 58.7835 34.464C58.7835 34.264 58.7155 34.096 58.5795 33.96C58.4515 33.824 58.2835 33.712 58.0755 33.624C57.8755 33.528 57.6675 33.44 57.4515 33.36C57.1795 33.256 56.9115 33.14 56.6475 33.012C56.3835 32.876 56.1675 32.704 55.9995 32.496C55.8315 32.28 55.7475 32.008 55.7475 31.68C55.7475 31.208 55.9235 30.816 56.2755 30.504C56.6355 30.184 57.1315 30.024 57.7635 30.024C58.1235 30.024 58.4595 30.088 58.7715 30.216C59.0835 30.344 59.3515 30.5 59.5755 30.684L59.0955 31.308C58.8955 31.156 58.6875 31.032 58.4715 30.936C58.2555 30.84 58.0195 30.792 57.7635 30.792C57.3955 30.792 57.1235 30.876 56.9475 31.044C56.7795 31.212 56.6955 31.408 56.6955 31.632C56.6955 31.816 56.7555 31.968 56.8755 32.088C56.9955 32.2 57.1515 32.3 57.3435 32.388C57.5355 32.468 57.7395 32.552 57.9555 32.64C58.2355 32.744 58.5115 32.864 58.7835 33C59.0555 33.128 59.2795 33.304 59.4555 33.528C59.6395 33.744 59.7315 34.036 59.7315 34.404C59.7315 34.716 59.6475 35.004 59.4795 35.268C59.3195 35.532 59.0795 35.744 58.7595 35.904C58.4475 36.064 58.0595 36.144 57.5955 36.144ZM63.1005 36.144C62.4765 36.144 62.0405 35.964 61.7925 35.604C61.5525 35.244 61.4325 34.776 61.4325 34.2V30.972H60.5685V30.228L61.4805 30.168L61.6005 28.536H62.4285V30.168H64.0005V30.972H62.4285V34.212C62.4285 34.572 62.4925 34.852 62.6205 35.052C62.7565 35.244 62.9925 35.34 63.3285 35.34C63.4325 35.34 63.5445 35.324 63.6645 35.292C63.7845 35.252 63.8925 35.216 63.9885 35.184L64.1805 35.928C64.0205 35.984 63.8445 36.032 63.6525 36.072C63.4685 36.12 63.2845 36.144 63.1005 36.144ZM65.7192 36V30.168H66.5352L66.6192 31.224H66.6552C66.8552 30.856 67.0992 30.564 67.3872 30.348C67.6752 30.132 67.9832 30.024 68.3112 30.024C68.5432 30.024 68.7512 30.064 68.9352 30.144L68.7432 31.008C68.6472 30.976 68.5592 30.952 68.4792 30.936C68.3992 30.92 68.2992 30.912 68.1792 30.912C67.9312 30.912 67.6712 31.012 67.3992 31.212C67.1352 31.412 66.9032 31.76 66.7032 32.256V36H65.7192ZM72.5261 36.144C72.0061 36.144 71.5341 36.024 71.1101 35.784C70.6861 35.536 70.3501 35.184 70.1021 34.728C69.8541 34.272 69.7301 33.728 69.7301 33.096C69.7301 32.456 69.8541 31.908 70.1021 31.452C70.3581 30.996 70.6861 30.644 71.0861 30.396C71.4861 30.148 71.9061 30.024 72.3461 30.024C73.0901 30.024 73.6621 30.272 74.0621 30.768C74.4701 31.264 74.6741 31.928 74.6741 32.76C74.6741 32.864 74.6701 32.968 74.6621 33.072C74.6621 33.168 74.6541 33.252 74.6381 33.324H70.7021C70.7421 33.94 70.9341 34.432 71.2781 34.8C71.6301 35.168 72.0861 35.352 72.6461 35.352C72.9261 35.352 73.1821 35.312 73.4141 35.232C73.6541 35.144 73.8821 35.032 74.0981 34.896L74.4461 35.544C74.1981 35.704 73.9141 35.844 73.5941 35.964C73.2821 36.084 72.9261 36.144 72.5261 36.144ZM70.6901 32.616H73.8101C73.8101 32.024 73.6821 31.576 73.4261 31.272C73.1781 30.96 72.8261 30.804 72.3701 30.804C71.9621 30.804 71.5941 30.964 71.2661 31.284C70.9461 31.596 70.7541 32.04 70.6901 32.616ZM78.5073 36.144C77.7793 36.144 77.1953 35.88 76.7553 35.352C76.3153 34.816 76.0953 34.064 76.0953 33.096C76.0953 32.464 76.2113 31.92 76.4433 31.464C76.6833 31 76.9953 30.644 77.3793 30.396C77.7713 30.148 78.1873 30.024 78.6273 30.024C78.9633 30.024 79.2553 30.084 79.5033 30.204C79.7513 30.324 80.0033 30.488 80.2593 30.696L80.2113 29.7V27.456H81.2073V36H80.3913L80.3073 35.316H80.2713C80.0473 35.54 79.7833 35.736 79.4793 35.904C79.1753 36.064 78.8513 36.144 78.5073 36.144ZM78.7233 35.316C79.2353 35.316 79.7313 35.048 80.2113 34.512V31.464C79.9633 31.24 79.7233 31.084 79.4913 30.996C79.2673 30.9 79.0353 30.852 78.7953 30.852C78.4833 30.852 78.1993 30.948 77.9433 31.14C77.6953 31.324 77.4953 31.584 77.3433 31.92C77.1913 32.248 77.1152 32.636 77.1152 33.084C77.1152 33.78 77.2553 34.328 77.5353 34.728C77.8153 35.12 78.2113 35.316 78.7233 35.316ZM83.5715 36V30.168H84.3875L84.4715 31.008H84.5075C84.7875 30.728 85.0835 30.496 85.3955 30.312C85.7075 30.12 86.0635 30.024 86.4635 30.024C87.0795 30.024 87.5275 30.22 87.8075 30.612C88.0955 30.996 88.2395 31.56 88.2395 32.304V36H87.2555V32.436C87.2555 31.892 87.1675 31.496 86.9915 31.248C86.8155 31 86.5355 30.876 86.1515 30.876C85.8555 30.876 85.5875 30.952 85.3475 31.104C85.1155 31.256 84.8515 31.48 84.5555 31.776V36H83.5715ZM90.63 38.508C90.502 38.508 90.378 38.496 90.258 38.472C90.146 38.448 90.042 38.42 89.946 38.388L90.138 37.608C90.202 37.624 90.274 37.64 90.354 37.656C90.434 37.68 90.51 37.692 90.582 37.692C90.91 37.692 91.182 37.572 91.398 37.332C91.614 37.1 91.782 36.804 91.902 36.444L92.034 36.012L89.694 30.168H90.714L91.902 33.396C91.99 33.644 92.082 33.912 92.178 34.2C92.282 34.488 92.378 34.768 92.466 35.04H92.514C92.602 34.776 92.686 34.5 92.766 34.212C92.846 33.924 92.926 33.652 93.006 33.396L94.05 30.168H95.01L92.814 36.48C92.678 36.864 92.514 37.208 92.322 37.512C92.138 37.816 91.906 38.056 91.626 38.232C91.354 38.416 91.022 38.508 90.63 38.508ZM92.298 29.124L91.794 28.632L93.486 26.628L94.182 27.288L92.298 29.124ZM99.3379 38.46V30.168H100.154L100.238 30.84H100.274C100.538 30.616 100.826 30.424 101.138 30.264C101.458 30.104 101.79 30.024 102.134 30.024C102.886 30.024 103.458 30.296 103.85 30.84C104.242 31.376 104.438 32.096 104.438 33C104.438 33.656 104.318 34.22 104.078 34.692C103.846 35.164 103.538 35.524 103.154 35.772C102.778 36.02 102.366 36.144 101.918 36.144C101.646 36.144 101.374 36.084 101.102 35.964C100.838 35.844 100.57 35.68 100.298 35.472L100.322 36.492V38.46H99.3379ZM101.75 35.316C102.23 35.316 102.626 35.112 102.938 34.704C103.258 34.288 103.418 33.72 103.418 33C103.418 32.36 103.298 31.844 103.058 31.452C102.826 31.052 102.434 30.852 101.882 30.852C101.634 30.852 101.382 30.92 101.126 31.056C100.878 31.192 100.61 31.388 100.322 31.644V34.704C100.586 34.928 100.842 35.088 101.09 35.184C101.338 35.272 101.558 35.316 101.75 35.316ZM108.662 36.144C108.19 36.144 107.746 36.024 107.33 35.784C106.922 35.544 106.59 35.196 106.334 34.74C106.086 34.284 105.962 33.736 105.962 33.096C105.962 32.44 106.086 31.884 106.334 31.428C106.59 30.972 106.922 30.624 107.33 30.384C107.746 30.144 108.19 30.024 108.662 30.024C109.142 30.024 109.586 30.144 109.994 30.384C110.402 30.624 110.73 30.972 110.978 31.428C111.234 31.884 111.362 32.44 111.362 33.096C111.362 33.736 111.234 34.284 110.978 34.74C110.73 35.196 110.402 35.544 109.994 35.784C109.586 36.024 109.142 36.144 108.662 36.144ZM108.662 35.328C109.166 35.328 109.57 35.124 109.874 34.716C110.186 34.3 110.342 33.76 110.342 33.096C110.342 32.424 110.186 31.88 109.874 31.464C109.57 31.048 109.166 30.84 108.662 30.84C108.166 30.84 107.762 31.048 107.45 31.464C107.138 31.88 106.982 32.424 106.982 33.096C106.982 33.76 107.138 34.3 107.45 34.716C107.762 35.124 108.166 35.328 108.662 35.328ZM113.298 36V30.168H114.114L114.198 31.224H114.234C114.434 30.856 114.678 30.564 114.966 30.348C115.254 30.132 115.562 30.024 115.89 30.024C116.122 30.024 116.33 30.064 116.514 30.144L116.322 31.008C116.226 30.976 116.138 30.952 116.058 30.936C115.978 30.92 115.878 30.912 115.758 30.912C115.51 30.912 115.25 31.012 114.978 31.212C114.714 31.412 114.482 31.76 114.282 32.256V36H113.298ZM119.694 36.144C119.07 36.144 118.634 35.964 118.386 35.604C118.146 35.244 118.026 34.776 118.026 34.2V30.972H117.162V30.228L118.074 30.168L118.194 28.536H119.022V30.168H120.594V30.972H119.022V34.212C119.022 34.572 119.086 34.852 119.214 35.052C119.35 35.244 119.586 35.34 119.922 35.34C120.026 35.34 120.138 35.324 120.258 35.292C120.378 35.252 120.486 35.216 120.582 35.184L120.774 35.928C120.614 35.984 120.438 36.032 120.246 36.072C120.062 36.12 119.878 36.144 119.694 36.144ZM123.399 36.144C122.911 36.144 122.503 36 122.175 35.712C121.855 35.416 121.695 35.008 121.695 34.488C121.695 33.848 121.979 33.36 122.547 33.024C123.123 32.68 124.031 32.44 125.271 32.304C125.271 32.056 125.235 31.82 125.163 31.596C125.099 31.372 124.979 31.192 124.803 31.056C124.635 30.912 124.391 30.84 124.071 30.84C123.735 30.84 123.419 30.904 123.123 31.032C122.827 31.16 122.563 31.304 122.331 31.464L121.947 30.78C122.219 30.604 122.551 30.436 122.943 30.276C123.343 30.108 123.775 30.024 124.239 30.024C124.951 30.024 125.467 30.244 125.787 30.684C126.107 31.116 126.267 31.696 126.267 32.424V36H125.451L125.367 35.304H125.331C125.059 35.528 124.759 35.724 124.431 35.892C124.111 36.06 123.767 36.144 123.399 36.144ZM123.687 35.352C123.967 35.352 124.231 35.284 124.479 35.148C124.727 35.012 124.991 34.82 125.271 34.572V32.952C124.303 33.072 123.623 33.252 123.231 33.492C122.847 33.732 122.655 34.04 122.655 34.416C122.655 34.744 122.755 34.984 122.955 35.136C123.155 35.28 123.399 35.352 123.687 35.352ZM124.107 29.124L123.603 28.632L125.295 26.628L125.991 27.288L124.107 29.124ZM129.546 36.144C129.178 36.144 128.91 36.032 128.742 35.808C128.582 35.576 128.502 35.248 128.502 34.824V27.456H129.486V34.896C129.486 35.048 129.514 35.16 129.57 35.232C129.626 35.296 129.69 35.328 129.762 35.328C129.794 35.328 129.822 35.328 129.846 35.328C129.878 35.32 129.922 35.312 129.978 35.304L130.11 36.048C130.046 36.08 129.97 36.104 129.882 36.12C129.794 36.136 129.682 36.144 129.546 36.144ZM136.023 36L133.923 30.168H134.943L136.047 33.48C136.135 33.768 136.223 34.056 136.311 34.344C136.407 34.632 136.499 34.916 136.587 35.196H136.635C136.723 34.916 136.811 34.632 136.899 34.344C136.995 34.056 137.083 33.768 137.163 33.48L138.267 30.168H139.239L137.175 36H136.023ZM143.082 36.144C142.562 36.144 142.09 36.024 141.666 35.784C141.242 35.536 140.906 35.184 140.658 34.728C140.41 34.272 140.286 33.728 140.286 33.096C140.286 32.456 140.41 31.908 140.658 31.452C140.914 30.996 141.242 30.644 141.642 30.396C142.042 30.148 142.462 30.024 142.902 30.024C143.646 30.024 144.218 30.272 144.618 30.768C145.026 31.264 145.23 31.928 145.23 32.76C145.23 32.864 145.226 32.968 145.218 33.072C145.218 33.168 145.21 33.252 145.194 33.324H141.258C141.298 33.94 141.49 34.432 141.834 34.8C142.186 35.168 142.642 35.352 143.202 35.352C143.482 35.352 143.738 35.312 143.97 35.232C144.21 35.144 144.438 35.032 144.654 34.896L145.002 35.544C144.754 35.704 144.47 35.844 144.15 35.964C143.838 36.084 143.482 36.144 143.082 36.144ZM141.246 32.616H144.366C144.366 32.024 144.238 31.576 143.982 31.272C143.734 30.96 143.382 30.804 142.926 30.804C142.518 30.804 142.15 30.964 141.822 31.284C141.502 31.596 141.31 32.04 141.246 32.616ZM147.071 36V30.168H147.887L147.971 31.224H148.007C148.207 30.856 148.451 30.564 148.739 30.348C149.027 30.132 149.335 30.024 149.663 30.024C149.895 30.024 150.103 30.064 150.287 30.144L150.095 31.008C149.999 30.976 149.911 30.952 149.831 30.936C149.751 30.92 149.651 30.912 149.531 30.912C149.283 30.912 149.023 31.012 148.751 31.212C148.487 31.412 148.255 31.76 148.055 32.256V36H147.071ZM153.878 36.144C153.358 36.144 152.886 36.024 152.462 35.784C152.038 35.536 151.702 35.184 151.454 34.728C151.206 34.272 151.082 33.728 151.082 33.096C151.082 32.456 151.206 31.908 151.454 31.452C151.71 30.996 152.038 30.644 152.438 30.396C152.838 30.148 153.258 30.024 153.698 30.024C154.442 30.024 155.014 30.272 155.414 30.768C155.822 31.264 156.026 31.928 156.026 32.76C156.026 32.864 156.022 32.968 156.014 33.072C156.014 33.168 156.006 33.252 155.99 33.324H152.054C152.094 33.94 152.286 34.432 152.63 34.8C152.982 35.168 153.438 35.352 153.998 35.352C154.278 35.352 154.534 35.312 154.766 35.232C155.006 35.144 155.234 35.032 155.45 34.896L155.798 35.544C155.55 35.704 155.266 35.844 154.946 35.964C154.634 36.084 154.278 36.144 153.878 36.144ZM152.042 32.616H155.162C155.162 32.024 155.034 31.576 154.778 31.272C154.53 30.96 154.178 30.804 153.722 30.804C153.314 30.804 152.946 30.964 152.618 31.284C152.298 31.596 152.106 32.04 152.042 32.616ZM157.267 38.604C157.091 38.604 156.931 38.588 156.787 38.556C156.635 38.524 156.507 38.488 156.403 38.448L156.607 37.704C156.679 37.728 156.763 37.748 156.859 37.764C156.955 37.788 157.055 37.8 157.159 37.8C157.447 37.8 157.639 37.696 157.735 37.488C157.831 37.288 157.879 37.012 157.879 36.66V30.168H158.863V36.66C158.863 37.252 158.743 37.724 158.503 38.076C158.263 38.428 157.851 38.604 157.267 38.604ZM158.359 28.968C158.167 28.968 158.007 28.912 157.879 28.8C157.759 28.68 157.699 28.52 157.699 28.32C157.699 28.128 157.759 27.972 157.879 27.852C158.007 27.732 158.167 27.672 158.359 27.672C158.551 27.672 158.707 27.732 158.827 27.852C158.955 27.972 159.019 28.128 159.019 28.32C159.019 28.52 158.955 28.68 158.827 28.8C158.707 28.912 158.551 28.968 158.359 28.968ZM161.232 36V30.168H162.048L162.132 31.008H162.168C162.448 30.728 162.744 30.496 163.056 30.312C163.368 30.12 163.724 30.024 164.124 30.024C164.74 30.024 165.188 30.22 165.468 30.612C165.756 30.996 165.9 31.56 165.9 32.304V36H164.916V32.436C164.916 31.892 164.828 31.496 164.652 31.248C164.476 31 164.196 30.876 163.812 30.876C163.516 30.876 163.248 30.952 163.008 31.104C162.776 31.256 162.512 31.48 162.216 31.776V36H161.232ZM170.558 36.144C170.038 36.144 169.566 36.024 169.142 35.784C168.718 35.536 168.382 35.184 168.134 34.728C167.886 34.272 167.762 33.728 167.762 33.096C167.762 32.456 167.886 31.908 168.134 31.452C168.39 30.996 168.718 30.644 169.118 30.396C169.518 30.148 169.938 30.024 170.378 30.024C171.122 30.024 171.694 30.272 172.094 30.768C172.502 31.264 172.706 31.928 172.706 32.76C172.706 32.864 172.702 32.968 172.694 33.072C172.694 33.168 172.686 33.252 172.67 33.324H168.734C168.774 33.94 168.966 34.432 169.31 34.8C169.662 35.168 170.118 35.352 170.678 35.352C170.958 35.352 171.214 35.312 171.446 35.232C171.686 35.144 171.914 35.032 172.13 34.896L172.478 35.544C172.23 35.704 171.946 35.844 171.626 35.964C171.314 36.084 170.958 36.144 170.558 36.144ZM168.722 32.616H171.842C171.842 32.024 171.714 31.576 171.458 31.272C171.21 30.96 170.858 30.804 170.402 30.804C169.994 30.804 169.626 30.964 169.298 31.284C168.978 31.596 168.786 32.04 168.722 32.616ZM173.947 38.604C173.771 38.604 173.611 38.588 173.467 38.556C173.315 38.524 173.187 38.488 173.083 38.448L173.287 37.704C173.359 37.728 173.443 37.748 173.539 37.764C173.635 37.788 173.735 37.8 173.839 37.8C174.127 37.8 174.319 37.696 174.415 37.488C174.511 37.288 174.559 37.012 174.559 36.66V30.168H175.543V36.66C175.543 37.252 175.423 37.724 175.183 38.076C174.943 38.428 174.531 38.604 173.947 38.604ZM175.039 28.968C174.847 28.968 174.687 28.912 174.559 28.8C174.439 28.68 174.379 28.52 174.379 28.32C174.379 28.128 174.439 27.972 174.559 27.852C174.687 27.732 174.847 27.672 175.039 27.672C175.231 27.672 175.387 27.732 175.507 27.852C175.635 27.972 175.699 28.128 175.699 28.32C175.699 28.52 175.635 28.68 175.507 28.8C175.387 28.912 175.231 28.968 175.039 28.968ZM182.238 36.144C181.822 36.144 181.426 36.068 181.05 35.916C180.674 35.756 180.346 35.564 180.066 35.34L180.558 34.68C180.814 34.88 181.078 35.048 181.35 35.184C181.622 35.312 181.93 35.376 182.274 35.376C182.658 35.376 182.946 35.288 183.138 35.112C183.33 34.928 183.426 34.712 183.426 34.464C183.426 34.264 183.358 34.096 183.222 33.96C183.094 33.824 182.926 33.712 182.718 33.624C182.518 33.528 182.31 33.44 182.094 33.36C181.822 33.256 181.554 33.14 181.29 33.012C181.026 32.876 180.81 32.704 180.642 32.496C180.474 32.28 180.39 32.008 180.39 31.68C180.39 31.208 180.566 30.816 180.918 30.504C181.278 30.184 181.774 30.024 182.406 30.024C182.766 30.024 183.102 30.088 183.414 30.216C183.726 30.344 183.994 30.5 184.218 30.684L183.738 31.308C183.538 31.156 183.33 31.032 183.114 30.936C182.898 30.84 182.662 30.792 182.406 30.792C182.038 30.792 181.766 30.876 181.59 31.044C181.422 31.212 181.338 31.408 181.338 31.632C181.338 31.816 181.398 31.968 181.518 32.088C181.638 32.2 181.794 32.3 181.986 32.388C182.178 32.468 182.382 32.552 182.598 32.64C182.878 32.744 183.154 32.864 183.426 33C183.698 33.128 183.922 33.304 184.098 33.528C184.282 33.744 184.374 34.036 184.374 34.404C184.374 34.716 184.29 35.004 184.122 35.268C183.962 35.532 183.722 35.744 183.402 35.904C183.09 36.064 182.702 36.144 182.238 36.144ZM186.142 38.46V30.168H186.958L187.042 30.84H187.078C187.342 30.616 187.63 30.424 187.942 30.264C188.262 30.104 188.594 30.024 188.938 30.024C189.69 30.024 190.262 30.296 190.654 30.84C191.046 31.376 191.242 32.096 191.242 33C191.242 33.656 191.122 34.22 190.882 34.692C190.65 35.164 190.342 35.524 189.958 35.772C189.582 36.02 189.17 36.144 188.722 36.144C188.45 36.144 188.178 36.084 187.906 35.964C187.642 35.844 187.374 35.68 187.102 35.472L187.126 36.492V38.46H186.142ZM188.554 35.316C189.034 35.316 189.43 35.112 189.742 34.704C190.062 34.288 190.222 33.72 190.222 33C190.222 32.36 190.102 31.844 189.862 31.452C189.63 31.052 189.238 30.852 188.686 30.852C188.438 30.852 188.186 30.92 187.93 31.056C187.682 31.192 187.414 31.388 187.126 31.644V34.704C187.39 34.928 187.646 35.088 187.894 35.184C188.142 35.272 188.362 35.316 188.554 35.316ZM193.198 36V30.168H194.014L194.098 31.224H194.134C194.334 30.856 194.578 30.564 194.866 30.348C195.154 30.132 195.462 30.024 195.79 30.024C196.022 30.024 196.23 30.064 196.414 30.144L196.222 31.008C196.126 30.976 196.038 30.952 195.958 30.936C195.878 30.92 195.778 30.912 195.658 30.912C195.41 30.912 195.15 31.012 194.878 31.212C194.614 31.412 194.382 31.76 194.182 32.256V36H193.198ZM198.809 36.144C198.321 36.144 197.913 36 197.585 35.712C197.265 35.416 197.105 35.008 197.105 34.488C197.105 33.848 197.389 33.36 197.957 33.024C198.533 32.68 199.441 32.44 200.681 32.304C200.681 32.056 200.645 31.82 200.573 31.596C200.509 31.372 200.389 31.192 200.213 31.056C200.045 30.912 199.801 30.84 199.481 30.84C199.145 30.84 198.829 30.904 198.533 31.032C198.237 31.16 197.973 31.304 197.741 31.464L197.357 30.78C197.629 30.604 197.961 30.436 198.353 30.276C198.753 30.108 199.185 30.024 199.649 30.024C200.361 30.024 200.877 30.244 201.197 30.684C201.517 31.116 201.677 31.696 201.677 32.424V36H200.861L200.777 35.304H200.741C200.469 35.528 200.169 35.724 199.841 35.892C199.521 36.06 199.177 36.144 198.809 36.144ZM199.097 35.352C199.377 35.352 199.641 35.284 199.889 35.148C200.137 35.012 200.401 34.82 200.681 34.572V32.952C199.713 33.072 199.033 33.252 198.641 33.492C198.257 33.732 198.065 34.04 198.065 34.416C198.065 34.744 198.165 34.984 198.365 35.136C198.565 35.28 198.809 35.352 199.097 35.352ZM199.517 29.124L199.013 28.632L200.705 26.628L201.401 27.288L199.517 29.124ZM205.172 36L203.072 30.168H204.092L205.196 33.48C205.284 33.768 205.372 34.056 205.46 34.344C205.556 34.632 205.648 34.916 205.736 35.196H205.784C205.872 34.916 205.96 34.632 206.048 34.344C206.144 34.056 206.232 33.768 206.312 33.48L207.416 30.168H208.388L206.324 36H205.172ZM210.01 38.508C209.882 38.508 209.758 38.496 209.638 38.472C209.526 38.448 209.422 38.42 209.326 38.388L209.518 37.608C209.582 37.624 209.654 37.64 209.734 37.656C209.814 37.68 209.89 37.692 209.962 37.692C210.29 37.692 210.562 37.572 210.778 37.332C210.994 37.1 211.162 36.804 211.282 36.444L211.414 36.012L209.074 30.168H210.094L211.282 33.396C211.37 33.644 211.462 33.912 211.558 34.2C211.662 34.488 211.758 34.768 211.846 35.04H211.894C211.982 34.776 212.066 34.5 212.146 34.212C212.226 33.924 212.306 33.652 212.386 33.396L213.43 30.168H214.39L212.194 36.48C212.058 36.864 211.894 37.208 211.702 37.512C211.518 37.816 211.286 38.056 211.006 38.232C210.734 38.416 210.402 38.508 210.01 38.508Z" fill="black"/>
</svg>
